<svg id="svg" version="1.1" width="400" height="400" viewBox="0 0 400 400" xmlns="http://www.w3.org/2000/svg" xmlns:xlink="http://www.w3.org/1999/xlink" ><g id="svgg"><path id="path0" d="M167.898 4.434 C 160.967 6.068,157.666 12.579,159.762 20.480 C 162.000 28.911,162.597 30.812,163.680 32.958 C 164.672 34.924,165.038 36.434,165.626 40.990 C 166.024 44.075,166.620 48.040,166.951 49.800 C 168.044 55.620,168.602 64.384,168.075 67.458 C 167.817 68.966,167.325 71.910,166.983 74.000 C 165.706 81.792,165.151 83.824,163.181 87.909 C 162.092 90.170,161.200 92.170,161.200 92.355 C 161.200 92.539,160.345 93.872,159.300 95.316 C 158.255 96.760,156.590 99.144,155.600 100.614 C 151.693 106.417,146.575 111.805,139.770 117.280 C 137.774 118.886,134.562 121.550,132.633 123.200 C 130.704 124.850,128.269 126.920,127.222 127.800 C 126.175 128.680,123.806 130.671,121.959 132.224 C 120.112 133.777,116.710 136.473,114.400 138.216 C 107.779 143.212,102.623 147.460,99.806 150.241 C 98.965 151.071,95.430 154.126,88.820 159.733 C 83.526 164.225,74.448 173.443,71.422 177.400 C 69.908 179.380,67.467 182.350,65.998 184.000 C 61.114 189.486,56.055 197.186,51.805 205.600 C 48.631 211.886,44.994 220.765,44.598 223.200 C 44.436 224.190,43.952 225.695,43.521 226.545 C 42.504 228.552,41.450 231.944,40.832 235.200 C 40.560 236.630,39.905 239.420,39.374 241.400 C 36.657 251.547,36.260 255.566,36.520 270.247 C 36.756 283.481,36.969 285.263,39.168 292.400 C 39.812 294.490,40.454 297.057,40.595 298.104 C 40.871 300.164,42.324 304.719,43.318 306.641 C 43.658 307.298,44.231 308.997,44.592 310.418 C 45.268 313.076,49.874 323.310,51.309 325.343 C 51.752 325.971,52.837 327.861,53.719 329.543 C 55.340 332.631,58.049 336.756,59.960 339.046 C 60.532 339.732,61.630 341.144,62.400 342.185 C 74.586 358.658,97.579 374.782,122.600 384.400 C 124.800 385.246,127.590 386.379,128.800 386.917 C 130.010 387.456,131.630 388.031,132.400 388.195 C 133.170 388.359,136.140 389.264,139.000 390.205 C 153.095 394.844,162.368 390.951,162.395 380.384 C 162.412 374.062,159.998 370.574,151.600 364.787 C 148.955 362.965,144.597 359.264,142.115 356.734 C 138.166 352.708,131.833 343.272,129.810 338.400 C 129.216 336.970,128.296 335.048,127.765 334.129 C 127.234 333.210,126.800 332.195,126.800 331.874 C 126.800 330.751,124.771 324.180,123.690 321.800 L 122.600 319.400 122.600 303.600 L 122.600 287.800 124.085 283.800 C 124.902 281.600,125.962 278.090,126.439 276.000 C 126.917 273.910,127.617 271.805,127.995 271.321 C 128.373 270.838,129.272 268.948,129.994 267.121 C 131.821 262.497,131.962 262.375,133.057 264.468 C 133.556 265.421,133.972 266.437,133.982 266.726 C 133.992 267.015,134.450 268.235,135.000 269.437 C 135.550 270.640,136.000 271.853,136.000 272.134 C 136.000 273.206,137.785 277.879,138.868 279.644 C 139.491 280.659,140.000 281.585,140.000 281.703 C 140.000 282.141,143.274 287.288,144.964 289.506 C 149.601 295.594,157.885 301.221,166.536 304.158 C 174.051 306.709,189.054 306.310,198.800 303.299 C 214.416 298.474,226.933 303.387,233.803 317.036 L 236.200 321.800 236.200 332.600 L 236.200 343.400 234.037 347.599 C 231.379 352.761,229.307 355.210,224.400 358.990 C 219.370 362.864,215.600 367.324,215.600 369.401 C 215.600 369.752,215.333 370.555,215.008 371.185 C 213.749 373.620,213.908 379.600,215.231 379.600 C 215.434 379.600,215.600 380.015,215.600 380.522 C 215.600 385.760,230.195 386.943,241.200 382.598 C 243.070 381.860,246.490 380.537,248.800 379.659 C 261.963 374.657,274.645 368.199,283.709 361.884 C 285.079 360.929,288.000 358.911,290.200 357.398 C 296.890 352.799,305.067 345.568,311.600 338.474 C 318.709 330.755,318.708 330.756,326.325 319.407 C 329.719 314.351,337.609 298.548,338.788 294.443 C 339.206 292.989,340.104 290.465,340.784 288.833 C 342.066 285.758,342.878 282.595,343.614 277.817 C 343.849 276.287,344.478 273.677,345.011 272.017 C 348.659 260.658,348.551 226.409,344.832 215.259 C 344.197 213.357,343.291 210.180,342.819 208.200 C 342.347 206.220,341.261 203.070,340.406 201.200 C 339.551 199.330,338.465 196.810,337.992 195.601 C 337.520 194.392,336.985 193.222,336.804 193.001 C 336.623 192.780,334.551 189.000,332.200 184.600 C 329.849 180.200,327.492 176.027,326.962 175.327 C 326.433 174.626,326.000 173.957,326.000 173.838 C 326.000 173.720,324.830 171.909,323.400 169.815 C 321.970 167.720,320.800 165.850,320.800 165.657 C 320.800 165.465,320.425 164.831,319.966 164.248 C 319.508 163.665,318.458 161.976,317.634 160.494 C 316.809 159.012,315.763 157.153,315.309 156.362 C 314.855 155.571,313.907 153.591,313.202 151.962 C 312.498 150.333,311.479 148.078,310.938 146.950 C 309.974 144.941,309.958 144.732,310.078 136.350 L 310.200 127.800 311.685 124.736 C 313.128 121.759,316.066 113.490,316.589 110.935 C 317.456 106.703,314.572 100.291,310.903 98.295 C 306.690 96.002,303.437 95.990,293.000 98.228 C 272.390 102.649,255.471 118.301,252.603 135.600 C 252.438 136.590,251.972 138.056,251.565 138.858 C 250.785 140.399,249.485 144.980,248.971 148.000 C 248.803 148.990,248.651 157.180,248.633 166.200 L 248.600 182.600 246.335 186.200 C 240.342 195.725,231.757 198.951,223.485 194.784 C 214.626 190.322,214.318 182.268,222.631 172.400 C 224.948 169.650,227.581 166.320,228.483 165.000 C 229.385 163.680,231.053 161.430,232.191 160.000 C 234.908 156.585,237.291 152.712,238.618 149.553 C 239.209 148.149,239.995 146.550,240.365 146.000 C 241.627 144.127,245.369 133.505,246.601 128.300 C 248.947 118.386,248.072 91.000,245.156 83.070 C 244.494 81.272,243.598 78.491,243.165 76.891 C 242.499 74.435,238.936 66.268,237.017 62.800 C 232.205 54.106,228.368 48.407,223.418 42.600 C 222.292 41.280,221.039 39.674,220.632 39.032 C 219.165 36.715,207.287 25.444,202.200 21.542 C 199.340 19.348,195.740 16.555,194.200 15.336 C 182.518 6.085,174.679 2.836,167.898 4.434 M176.027 7.425 C 178.485 8.131,180.532 9.014,182.000 10.000 C 182.550 10.370,184.260 11.503,185.800 12.520 C 189.419 14.909,193.323 17.731,194.298 18.665 C 194.720 19.069,197.211 21.049,199.833 23.065 C 205.253 27.232,215.915 37.528,219.437 41.998 C 220.737 43.646,222.133 45.356,222.539 45.798 C 223.474 46.813,227.668 52.249,228.199 53.134 C 228.419 53.500,229.345 54.970,230.258 56.400 C 232.722 60.262,235.685 65.542,236.658 67.804 C 237.131 68.902,238.253 71.446,239.153 73.457 C 240.053 75.468,241.044 78.168,241.356 79.457 C 241.667 80.746,242.227 82.610,242.599 83.600 C 246.045 92.775,247.252 117.844,244.640 126.011 C 244.325 126.995,243.493 129.690,242.790 132.000 C 240.394 139.872,239.661 141.800,237.160 146.800 C 234.255 152.607,232.110 156.063,228.900 160.103 C 227.635 161.697,226.164 163.630,225.631 164.400 C 225.097 165.170,224.332 166.160,223.930 166.600 C 217.873 173.223,215.349 177.404,214.390 182.400 C 212.823 190.560,218.506 197.324,228.525 199.224 C 235.245 200.498,246.365 193.525,249.473 186.087 C 249.789 185.332,250.144 184.810,250.262 184.929 C 250.815 185.482,247.541 190.462,244.800 193.238 C 239.315 198.794,232.065 201.151,225.973 199.362 C 212.388 195.372,209.688 182.857,219.769 170.600 C 233.814 153.521,238.961 144.412,242.776 129.881 C 246.141 117.061,245.952 96.949,242.350 84.634 C 234.433 57.570,214.849 32.931,185.603 13.239 C 168.906 1.997,158.593 9.156,165.001 27.542 C 166.903 33.001,166.949 33.184,165.968 31.410 C 163.172 26.354,161.201 16.682,162.404 13.926 C 164.953 8.088,169.984 5.687,176.027 7.425 M164.276 19.100 C 164.175 19.485,164.093 19.170,164.093 18.400 C 164.093 17.630,164.175 17.315,164.276 17.700 C 164.376 18.085,164.376 18.715,164.276 19.100 M168.981 42.929 C 174.664 75.124,167.332 98.148,145.465 116.776 C 126.174 133.208,122.000 136.659,114.200 142.623 C 109.070 146.545,104.316 150.493,100.800 153.753 C 99.810 154.670,96.484 157.576,93.408 160.211 C 63.326 185.976,47.785 212.301,41.014 248.964 C 32.704 293.955,56.220 344.080,97.000 368.300 C 111.412 376.859,130.129 384.741,143.677 387.955 C 153.926 390.386,160.644 383.721,156.678 375.057 C 155.649 372.810,154.087 371.293,145.800 364.492 C 122.936 345.728,113.359 310.596,122.461 278.876 C 123.578 274.984,124.659 271.530,124.863 271.200 C 125.619 269.977,124.685 274.258,123.336 278.200 C 121.121 284.674,120.876 285.881,120.427 292.562 C 119.411 307.699,120.194 319.339,122.705 326.400 C 123.605 328.930,124.471 331.720,124.630 332.600 C 124.992 334.599,130.120 345.294,131.658 347.258 C 132.286 348.059,132.800 348.828,132.800 348.966 C 132.800 351.483,142.644 361.548,151.363 367.946 C 156.288 371.559,158.873 375.635,158.953 379.915 C 158.983 381.498,158.821 382.540,158.516 382.729 C 158.249 382.893,157.770 383.653,157.451 384.416 C 154.698 391.004,144.399 390.545,125.800 383.005 C 118.083 379.877,111.696 377.126,109.400 375.944 C 102.226 372.247,98.536 370.267,98.000 369.828 C 97.670 369.557,96.500 368.830,95.400 368.213 C 90.517 365.472,78.919 356.186,74.151 351.200 C 72.784 349.770,70.255 347.160,68.532 345.400 C 65.102 341.897,58.472 332.942,56.241 328.800 C 55.387 327.213,53.817 324.406,52.283 321.721 C 51.505 320.358,50.744 318.828,50.593 318.321 C 50.441 317.815,49.981 316.813,49.570 316.096 C 48.787 314.730,47.069 310.513,46.597 308.800 C 46.446 308.250,45.638 305.910,44.801 303.600 C 43.964 301.290,42.894 297.600,42.422 295.400 C 41.950 293.200,41.207 290.193,40.770 288.717 C 37.729 278.437,37.734 257.848,40.780 246.464 C 40.996 245.659,41.712 242.570,42.372 239.600 C 44.657 229.323,51.151 210.849,53.200 208.800 C 53.310 208.690,54.030 207.265,54.800 205.633 C 55.570 204.001,56.658 202.021,57.219 201.233 C 57.779 200.445,58.476 199.215,58.767 198.500 C 59.059 197.785,59.455 197.200,59.649 197.200 C 59.842 197.200,60.000 197.011,60.000 196.779 C 60.000 196.291,63.981 190.184,65.071 189.000 C 65.476 188.560,66.436 187.390,67.204 186.400 C 67.972 185.410,69.080 184.060,69.667 183.400 C 81.304 170.313,86.541 164.975,93.217 159.400 C 96.385 156.754,96.524 156.632,101.046 152.556 C 102.781 150.992,105.024 148.973,106.031 148.069 C 107.038 147.165,109.754 145.024,112.066 143.313 C 114.378 141.601,117.244 139.422,118.435 138.471 C 123.644 134.310,125.870 132.486,127.798 130.800 C 130.348 128.569,131.554 127.541,134.601 125.000 C 135.921 123.900,137.180 122.802,137.400 122.560 C 137.620 122.318,138.520 121.604,139.400 120.974 C 145.456 116.639,153.704 108.122,157.834 101.941 C 159.355 99.664,160.965 97.396,161.411 96.901 C 161.857 96.405,162.745 94.785,163.385 93.300 C 164.024 91.815,164.936 89.970,165.411 89.200 C 166.919 86.753,170.218 72.650,170.692 66.621 C 171.003 62.661,170.034 51.528,168.938 46.482 C 167.969 42.019,166.809 34.879,166.846 33.600 C 166.888 32.115,167.691 35.623,168.981 42.929 M212.600 36.800 C 213.459 37.680,214.072 38.400,213.962 38.400 C 213.852 38.400,213.059 37.680,212.200 36.800 C 211.341 35.920,210.728 35.200,210.838 35.200 C 210.948 35.200,211.741 35.920,212.600 36.800 M243.882 98.900 C 243.787 99.395,243.709 98.990,243.709 98.000 C 243.709 97.010,243.787 96.605,243.882 97.100 C 243.978 97.595,243.978 98.405,243.882 98.900 M308.000 100.779 C 314.232 103.922,315.018 111.536,310.180 121.888 C 308.085 126.371,307.978 125.767,309.985 120.789 C 317.099 103.144,309.234 96.210,289.137 102.409 C 274.260 106.997,261.898 118.352,256.812 132.099 C 252.549 143.623,251.610 149.872,251.562 167.051 C 251.536 175.933,251.361 181.289,251.051 182.600 C 250.636 184.361,250.592 183.836,250.686 178.200 C 250.745 174.680,250.861 166.490,250.942 160.000 L 251.092 148.200 252.746 143.323 C 253.656 140.640,254.400 138.076,254.400 137.624 C 254.400 136.718,255.812 132.371,256.617 130.800 C 256.899 130.250,257.751 128.450,258.511 126.800 C 266.568 109.304,295.127 94.289,308.000 100.779 M244.297 109.684 C 244.218 111.068,244.153 110.040,244.153 107.400 C 244.152 104.760,244.216 103.628,244.295 104.884 C 244.374 106.141,244.375 108.301,244.297 109.684 M149.200 114.925 C 149.200 114.994,148.615 115.579,147.900 116.225 L 146.600 117.400 147.775 116.100 C 148.870 114.888,149.200 114.616,149.200 114.925 M243.883 118.895 C 243.787 119.393,243.705 119.080,243.701 118.200 C 243.696 117.320,243.775 116.913,243.875 117.295 C 243.975 117.678,243.979 118.398,243.883 118.895 M308.027 128.989 C 306.501 139.962,308.230 149.620,313.223 158.000 C 313.419 158.330,314.603 160.400,315.854 162.600 C 317.105 164.800,318.607 167.320,319.193 168.200 C 322.587 173.297,326.606 179.800,328.660 183.518 C 329.354 184.773,330.273 186.430,330.702 187.200 C 333.087 191.471,337.200 199.585,337.200 200.017 C 337.200 200.294,337.628 201.438,338.152 202.560 C 339.599 205.661,341.116 210.307,341.612 213.162 C 341.857 214.571,342.389 216.641,342.793 217.762 C 345.069 224.064,345.396 227.478,345.346 244.400 C 345.296 261.680,345.434 260.360,342.498 271.609 C 342.066 273.264,341.579 275.866,341.416 277.391 C 341.123 280.120,336.644 293.779,334.592 298.200 C 332.977 301.678,330.791 306.142,329.890 307.800 C 329.412 308.680,328.250 310.840,327.308 312.600 C 324.638 317.589,323.596 319.320,322.616 320.400 C 322.117 320.950,320.808 322.750,319.708 324.400 C 313.342 333.946,299.369 347.868,288.600 355.394 C 275.899 364.270,265.019 370.457,255.200 374.385 C 252.890 375.310,250.460 376.318,249.800 376.627 C 249.140 376.935,247.340 377.624,245.800 378.157 C 244.260 378.691,241.758 379.587,240.240 380.149 C 233.956 382.478,226.825 383.008,224.000 381.356 C 223.053 380.802,223.096 380.788,224.800 381.085 C 231.241 382.211,235.815 381.271,248.772 376.159 C 307.994 352.792,343.165 305.856,344.658 248.200 C 345.407 219.253,339.980 201.661,321.333 172.600 C 307.761 151.449,304.760 141.654,307.632 127.890 C 308.306 124.664,308.538 125.312,308.027 128.989 M253.076 151.900 C 252.975 152.285,252.893 151.970,252.893 151.200 C 252.893 150.430,252.975 150.115,253.076 150.500 C 253.176 150.885,253.176 151.515,253.076 151.900 M252.698 165.879 C 252.626 168.036,252.567 166.380,252.567 162.200 C 252.566 158.020,252.625 156.256,252.698 158.279 C 252.770 160.303,252.771 163.723,252.698 165.879 M253.487 162.295 C 253.395 162.903,253.317 162.500,253.314 161.400 C 253.311 160.300,253.387 159.803,253.482 160.295 C 253.577 160.786,253.579 161.686,253.487 162.295 M253.892 175.891 C 253.805 176.721,253.733 176.140,253.731 174.600 C 253.729 173.060,253.800 172.381,253.889 173.091 C 253.977 173.801,253.979 175.061,253.892 175.891 M343.482 232.900 C 343.387 233.395,343.309 232.990,343.309 232.000 C 343.309 231.010,343.387 230.605,343.482 231.100 C 343.578 231.595,343.578 232.405,343.482 232.900 M342.682 235.300 C 342.587 235.795,342.509 235.390,342.509 234.400 C 342.509 233.410,342.587 233.005,342.682 233.500 C 342.778 233.995,342.778 234.805,342.682 235.300 M343.898 246.881 C 343.824 248.706,343.762 247.320,343.762 243.800 C 343.761 240.280,343.822 238.786,343.897 240.481 C 343.972 242.176,343.972 245.056,343.898 246.881 M135.400 252.000 C 135.537 252.221,135.248 252.400,134.755 252.400 C 134.264 252.400,133.489 252.714,133.031 253.097 C 132.428 253.603,132.466 253.493,133.170 252.697 C 134.175 251.560,134.974 251.310,135.400 252.000 M342.682 254.100 C 342.587 254.595,342.509 254.190,342.509 253.200 C 342.509 252.210,342.587 251.805,342.682 252.300 C 342.778 252.795,342.778 253.605,342.682 254.100 M343.482 256.100 C 343.387 256.595,343.309 256.190,343.309 255.200 C 343.309 254.210,343.387 253.805,343.482 254.300 C 343.578 254.795,343.578 255.605,343.482 256.100 M136.276 256.300 C 136.175 256.685,136.093 256.370,136.093 255.600 C 136.093 254.830,136.175 254.515,136.276 254.900 C 136.376 255.285,136.376 255.915,136.276 256.300 M41.076 256.700 C 40.975 257.085,40.893 256.770,40.893 256.000 C 40.893 255.230,40.975 254.915,41.076 255.300 C 41.176 255.685,41.176 256.315,41.076 256.700 M135.069 257.005 C 135.330 258.102,135.915 260.625,136.369 262.611 C 142.324 288.628,158.082 302.671,181.200 302.564 L 189.000 302.528 195.600 300.843 C 212.255 296.591,222.098 298.164,230.383 306.402 C 238.340 314.315,241.469 329.180,238.367 344.332 C 237.690 347.636,237.556 346.568,238.046 341.767 C 238.719 335.160,238.294 321.164,237.342 318.600 C 231.432 302.677,216.710 295.913,198.600 300.800 C 180.301 305.739,168.577 304.394,155.510 295.859 C 149.135 291.695,139.715 278.578,138.232 271.800 C 137.835 269.986,136.421 265.265,135.563 262.885 C 135.143 261.722,134.800 260.354,134.800 259.845 C 134.800 258.474,133.990 256.400,133.455 256.400 C 132.893 256.400,129.695 261.204,129.090 262.957 C 128.459 264.782,125.540 270.473,125.338 270.271 C 125.112 270.046,128.480 262.446,130.066 259.600 C 133.032 254.275,134.269 253.634,135.069 257.005 M40.687 263.095 C 40.595 263.703,40.517 263.300,40.514 262.200 C 40.511 261.100,40.587 260.603,40.682 261.095 C 40.777 261.586,40.779 262.486,40.687 263.095 M41.496 271.100 C 41.416 272.365,41.351 271.330,41.351 268.800 C 41.351 266.270,41.416 265.235,41.496 266.500 C 41.575 267.765,41.575 269.835,41.496 271.100 M40.682 274.500 C 40.587 274.995,40.509 274.590,40.509 273.600 C 40.509 272.610,40.587 272.205,40.682 272.700 C 40.778 273.195,40.778 274.005,40.682 274.500 M118.282 299.300 C 118.187 299.795,118.109 299.390,118.109 298.400 C 118.109 297.410,118.187 297.005,118.282 297.500 C 118.378 297.995,118.378 298.805,118.282 299.300 M212.100 297.493 C 211.165 297.577,209.635 297.577,208.700 297.493 C 207.765 297.409,208.530 297.340,210.400 297.340 C 212.270 297.340,213.035 297.409,212.100 297.493 M182.700 301.894 C 181.655 301.976,179.945 301.976,178.900 301.894 C 177.855 301.812,178.710 301.744,180.800 301.744 C 182.890 301.744,183.745 301.812,182.700 301.894 M118.287 309.495 C 118.195 310.103,118.117 309.700,118.114 308.600 C 118.111 307.500,118.187 307.003,118.282 307.495 C 118.377 307.986,118.379 308.886,118.287 309.495 M120.744 325.200 C 120.744 325.578,120.617 325.504,120.400 325.000 C 120.211 324.560,120.056 323.930,120.056 323.600 C 120.056 323.222,120.183 323.296,120.400 323.800 C 120.589 324.240,120.744 324.870,120.744 325.200 M307.200 336.915 C 307.200 336.978,306.255 337.923,305.100 339.015 L 303.000 341.000 304.985 338.900 C 306.829 336.949,307.200 336.617,307.200 336.915 M236.652 349.320 C 235.232 352.531,232.844 355.877,230.151 358.427 C 228.858 359.651,226.489 361.892,224.886 363.406 C 220.623 367.433,219.369 370.288,219.213 376.324 C 219.206 376.612,219.020 376.736,218.800 376.600 C 218.211 376.236,218.313 372.093,218.942 370.862 C 219.240 370.278,220.005 368.745,220.642 367.456 C 221.515 365.689,222.686 364.326,225.400 361.918 C 231.652 356.369,235.010 352.148,236.909 347.448 C 237.078 347.028,237.311 346.778,237.426 346.892 C 237.540 347.007,237.192 348.099,236.652 349.320 M78.225 352.500 L 79.400 353.800 78.100 352.625 C 76.888 351.530,76.616 351.200,76.925 351.200 C 76.994 351.200,77.579 351.785,78.225 352.500 M232.105 380.282 C 231.614 380.377,230.714 380.379,230.105 380.287 C 229.497 380.195,229.900 380.117,231.000 380.114 C 232.100 380.111,232.597 380.187,232.105 380.282 M147.905 387.075 C 147.522 387.175,146.802 387.179,146.305 387.083 C 145.807 386.987,146.120 386.905,147.000 386.901 C 147.880 386.896,148.287 386.975,147.905 387.075 " stroke="none" fill="#2cd4dc" fill-rule="evenodd"></path><path id="path1" d="M169.945 7.082 C 167.105 7.519,163.952 10.381,162.404 13.926 C 161.201 16.682,163.172 26.354,165.968 31.410 C 166.949 33.184,166.903 33.001,165.001 27.542 C 158.593 9.156,168.906 1.997,185.603 13.239 C 214.849 32.931,234.433 57.570,242.350 84.634 C 245.952 96.949,246.141 117.061,242.776 129.881 C 238.961 144.412,233.814 153.521,219.769 170.600 C 209.688 182.857,212.388 195.372,225.973 199.362 C 232.065 201.151,239.315 198.794,244.800 193.238 C 247.541 190.462,250.815 185.482,250.262 184.929 C 250.144 184.810,249.789 185.332,249.473 186.087 C 246.365 193.525,235.245 200.498,228.525 199.224 C 218.506 197.324,212.823 190.560,214.390 182.400 C 215.349 177.404,217.873 173.223,223.930 166.600 C 224.332 166.160,225.097 165.170,225.631 164.400 C 226.164 163.630,227.635 161.697,228.900 160.103 C 232.110 156.063,234.255 152.607,237.160 146.800 C 239.661 141.800,240.394 139.872,242.790 132.000 C 243.493 129.690,244.325 126.995,244.640 126.011 C 247.252 117.844,246.045 92.775,242.599 83.600 C 242.227 82.610,241.667 80.746,241.356 79.457 C 241.044 78.168,240.053 75.468,239.153 73.457 C 238.253 71.446,237.131 68.902,236.658 67.804 C 235.685 65.542,232.722 60.262,230.258 56.400 C 229.345 54.970,228.419 53.500,228.199 53.134 C 227.668 52.249,223.474 46.813,222.539 45.798 C 222.133 45.356,220.737 43.646,219.437 41.998 C 215.915 37.528,205.253 27.232,199.833 23.065 C 197.211 21.049,194.720 19.069,194.298 18.665 C 193.323 17.731,189.419 14.909,185.800 12.520 C 184.260 11.503,182.550 10.370,182.000 10.000 C 178.463 7.625,173.781 6.492,169.945 7.082 M164.093 18.400 C 164.093 19.170,164.175 19.485,164.276 19.100 C 164.376 18.715,164.376 18.085,164.276 17.700 C 164.175 17.315,164.093 17.630,164.093 18.400 M166.846 33.600 C 166.809 34.879,167.969 42.019,168.938 46.482 C 170.034 51.528,171.003 62.661,170.692 66.621 C 170.218 72.650,166.919 86.753,165.411 89.200 C 164.936 89.970,164.024 91.815,163.385 93.300 C 162.745 94.785,161.857 96.405,161.411 96.901 C 160.965 97.396,159.355 99.664,157.834 101.941 C 153.704 108.122,145.456 116.639,139.400 120.974 C 138.520 121.604,137.620 122.318,137.400 122.560 C 137.180 122.802,135.921 123.900,134.601 125.000 C 131.554 127.541,130.348 128.569,127.798 130.800 C 125.870 132.486,123.644 134.310,118.435 138.471 C 117.244 139.422,114.378 141.601,112.066 143.313 C 109.754 145.024,107.038 147.165,106.031 148.069 C 105.024 148.973,102.781 150.992,101.046 152.556 C 96.524 156.632,96.385 156.754,93.217 159.400 C 86.541 164.975,81.304 170.313,69.667 183.400 C 69.080 184.060,67.972 185.410,67.204 186.400 C 66.436 187.390,65.476 188.560,65.071 189.000 C 63.981 190.184,60.000 196.291,60.000 196.779 C 60.000 197.011,59.842 197.200,59.649 197.200 C 59.455 197.200,59.059 197.785,58.767 198.500 C 58.476 199.215,57.779 200.445,57.219 201.233 C 56.658 202.021,55.570 204.001,54.800 205.633 C 54.030 207.265,53.310 208.690,53.200 208.800 C 51.151 210.849,44.657 229.323,42.372 239.600 C 41.712 242.570,40.996 245.659,40.780 246.464 C 37.734 257.848,37.729 278.437,40.770 288.717 C 41.207 290.193,41.950 293.200,42.422 295.400 C 42.894 297.600,43.964 301.290,44.801 303.600 C 45.638 305.910,46.446 308.250,46.597 308.800 C 47.069 310.513,48.787 314.730,49.570 316.096 C 49.981 316.813,50.441 317.815,50.593 318.321 C 50.744 318.828,51.505 320.358,52.283 321.721 C 53.817 324.406,55.387 327.213,56.241 328.800 C 58.472 332.942,65.102 341.897,68.532 345.400 C 70.255 347.160,72.784 349.770,74.151 351.200 C 78.919 356.186,90.517 365.472,95.400 368.213 C 96.500 368.830,97.670 369.557,98.000 369.828 C 98.536 370.267,102.226 372.247,109.400 375.944 C 111.696 377.126,118.083 379.877,125.800 383.005 C 144.399 390.545,154.698 391.004,157.451 384.416 C 157.770 383.653,158.249 382.893,158.516 382.729 C 158.821 382.540,158.983 381.498,158.953 379.915 C 158.873 375.635,156.288 371.559,151.363 367.946 C 147.857 365.373,142.989 361.473,141.249 359.841 C 139.629 358.322,132.800 349.533,132.800 348.966 C 132.800 348.828,132.286 348.059,131.658 347.258 C 130.120 345.294,124.992 334.599,124.630 332.600 C 124.471 331.720,123.605 328.930,122.705 326.400 C 120.194 319.339,119.411 307.699,120.427 292.562 C 120.876 285.881,121.121 284.674,123.336 278.200 C 124.685 274.258,125.619 269.977,124.863 271.200 C 121.103 277.281,118.374 298.789,119.560 313.000 C 121.202 332.667,131.395 352.670,145.800 364.492 C 154.087 371.293,155.649 372.810,156.678 375.057 C 160.644 383.721,153.926 390.386,143.677 387.955 C 130.129 384.741,111.412 376.859,97.000 368.300 C 56.220 344.080,32.704 293.955,41.014 248.964 C 47.785 212.301,63.326 185.976,93.408 160.211 C 96.484 157.576,99.810 154.670,100.800 153.753 C 104.316 150.493,109.070 146.545,114.200 142.623 C 122.000 136.659,126.174 133.208,145.465 116.776 C 163.811 101.148,173.250 78.263,170.841 55.253 C 170.096 48.135,166.922 30.935,166.846 33.600 M212.200 36.800 C 213.059 37.680,213.852 38.400,213.962 38.400 C 214.072 38.400,213.459 37.680,212.600 36.800 C 211.741 35.920,210.948 35.200,210.838 35.200 C 210.728 35.200,211.341 35.920,212.200 36.800 M243.709 98.000 C 243.709 98.990,243.787 99.395,243.882 98.900 C 243.978 98.405,243.978 97.595,243.882 97.100 C 243.787 96.605,243.709 97.010,243.709 98.000 M299.600 99.514 C 282.645 100.894,265.065 112.568,258.511 126.800 C 257.751 128.450,256.899 130.250,256.617 130.800 C 255.812 132.371,254.400 136.718,254.400 137.624 C 254.400 138.076,253.656 140.640,252.746 143.323 L 251.092 148.200 250.942 160.000 C 250.861 166.490,250.745 174.680,250.686 178.200 C 250.592 183.836,250.636 184.361,251.051 182.600 C 251.361 181.289,251.536 175.933,251.562 167.051 C 251.610 149.872,252.549 143.623,256.812 132.099 C 261.898 118.352,274.260 106.997,289.137 102.409 C 309.234 96.210,317.099 103.144,309.985 120.789 C 307.978 125.767,308.085 126.371,310.180 121.888 C 316.817 107.687,312.457 98.467,299.600 99.514 M244.153 107.400 C 244.153 110.040,244.218 111.068,244.297 109.684 C 244.375 108.301,244.374 106.141,244.295 104.884 C 244.216 103.628,244.152 104.760,244.153 107.400 M147.775 116.100 L 146.600 117.400 147.900 116.225 C 149.112 115.130,149.384 114.800,149.075 114.800 C 149.006 114.800,148.421 115.385,147.775 116.100 M243.701 118.200 C 243.705 119.080,243.787 119.393,243.883 118.895 C 243.979 118.398,243.975 117.678,243.875 117.295 C 243.775 116.913,243.696 117.320,243.701 118.200 M307.632 127.890 C 304.760 141.654,307.761 151.449,321.333 172.600 C 339.980 201.661,345.407 219.253,344.658 248.200 C 343.165 305.856,307.994 352.792,248.772 376.159 C 235.815 381.271,231.241 382.211,224.800 381.085 C 223.096 380.788,223.053 380.802,224.000 381.356 C 226.825 383.008,233.956 382.478,240.240 380.149 C 241.758 379.587,244.260 378.691,245.800 378.157 C 247.340 377.624,249.140 376.935,249.800 376.627 C 250.460 376.318,252.890 375.310,255.200 374.385 C 265.019 370.457,275.899 364.270,288.600 355.394 C 299.369 347.868,313.342 333.946,319.708 324.400 C 320.808 322.750,322.117 320.950,322.616 320.400 C 323.596 319.320,324.638 317.589,327.308 312.600 C 328.250 310.840,329.412 308.680,329.890 307.800 C 330.791 306.142,332.977 301.678,334.592 298.200 C 336.644 293.779,341.123 280.120,341.416 277.391 C 341.579 275.866,342.066 273.264,342.498 271.609 C 345.434 260.360,345.296 261.680,345.346 244.400 C 345.396 227.478,345.069 224.064,342.793 217.762 C 342.389 216.641,341.857 214.571,341.612 213.162 C 341.116 210.307,339.599 205.661,338.152 202.560 C 337.628 201.438,337.200 200.294,337.200 200.017 C 337.200 199.585,333.087 191.471,330.702 187.200 C 330.273 186.430,329.354 184.773,328.660 183.518 C 326.606 179.800,322.587 173.297,319.193 168.200 C 318.607 167.320,317.105 164.800,315.854 162.600 C 314.603 160.400,313.419 158.330,313.223 158.000 C 308.230 149.620,306.501 139.962,308.027 128.989 C 308.538 125.312,308.306 124.664,307.632 127.890 M252.893 151.200 C 252.893 151.970,252.975 152.285,253.076 151.900 C 253.176 151.515,253.176 150.885,253.076 150.500 C 252.975 150.115,252.893 150.430,252.893 151.200 M252.567 162.200 C 252.567 166.380,252.626 168.036,252.698 165.879 C 252.771 163.723,252.770 160.303,252.698 158.279 C 252.625 156.256,252.566 158.020,252.567 162.200 M253.314 161.400 C 253.317 162.500,253.395 162.903,253.487 162.295 C 253.579 161.686,253.577 160.786,253.482 160.295 C 253.387 159.803,253.311 160.300,253.314 161.400 M253.731 174.600 C 253.733 176.140,253.805 176.721,253.892 175.891 C 253.979 175.061,253.977 173.801,253.889 173.091 C 253.800 172.381,253.729 173.060,253.731 174.600 M343.309 232.000 C 343.309 232.990,343.387 233.395,343.482 232.900 C 343.578 232.405,343.578 231.595,343.482 231.100 C 343.387 230.605,343.309 231.010,343.309 232.000 M342.509 234.400 C 342.509 235.390,342.587 235.795,342.682 235.300 C 342.778 234.805,342.778 233.995,342.682 233.500 C 342.587 233.005,342.509 233.410,342.509 234.400 M343.762 243.800 C 343.762 247.320,343.824 248.706,343.898 246.881 C 343.972 245.056,343.972 242.176,343.897 240.481 C 343.822 238.786,343.761 240.280,343.762 243.800 M133.170 252.697 C 132.466 253.493,132.428 253.603,133.031 253.097 C 133.489 252.714,134.264 252.400,134.755 252.400 C 135.248 252.400,135.537 252.221,135.400 252.000 C 134.974 251.310,134.175 251.560,133.170 252.697 M342.509 253.200 C 342.509 254.190,342.587 254.595,342.682 254.100 C 342.778 253.605,342.778 252.795,342.682 252.300 C 342.587 251.805,342.509 252.210,342.509 253.200 M343.309 255.200 C 343.309 256.190,343.387 256.595,343.482 256.100 C 343.578 255.605,343.578 254.795,343.482 254.300 C 343.387 253.805,343.309 254.210,343.309 255.200 M136.093 255.600 C 136.093 256.370,136.175 256.685,136.276 256.300 C 136.376 255.915,136.376 255.285,136.276 254.900 C 136.175 254.515,136.093 254.830,136.093 255.600 M40.893 256.000 C 40.893 256.770,40.975 257.085,41.076 256.700 C 41.176 256.315,41.176 255.685,41.076 255.300 C 40.975 254.915,40.893 255.230,40.893 256.000 M132.283 256.078 C 130.282 258.746,124.871 269.804,125.338 270.271 C 125.540 270.473,128.459 264.782,129.090 262.957 C 129.695 261.204,132.893 256.400,133.455 256.400 C 133.990 256.400,134.800 258.474,134.800 259.845 C 134.800 260.354,135.143 261.722,135.563 262.885 C 136.421 265.265,137.835 269.986,138.232 271.800 C 139.715 278.578,149.135 291.695,155.510 295.859 C 168.577 304.394,180.301 305.739,198.600 300.800 C 216.710 295.913,231.432 302.677,237.342 318.600 C 238.294 321.164,238.719 335.160,238.046 341.767 C 237.556 346.568,237.690 347.636,238.367 344.332 C 241.469 329.180,238.340 314.315,230.383 306.402 C 222.098 298.164,212.255 296.591,195.600 300.843 L 189.000 302.528 181.200 302.564 C 158.082 302.671,142.324 288.628,136.369 262.611 C 134.688 255.264,134.609 255.013,133.935 254.883 C 133.556 254.810,132.852 255.319,132.283 256.078 M40.514 262.200 C 40.517 263.300,40.595 263.703,40.687 263.095 C 40.779 262.486,40.777 261.586,40.682 261.095 C 40.587 260.603,40.511 261.100,40.514 262.200 M41.351 268.800 C 41.351 271.330,41.416 272.365,41.496 271.100 C 41.575 269.835,41.575 267.765,41.496 266.500 C 41.416 265.235,41.351 266.270,41.351 268.800 M40.509 273.600 C 40.509 274.590,40.587 274.995,40.682 274.500 C 40.778 274.005,40.778 273.195,40.682 272.700 C 40.587 272.205,40.509 272.610,40.509 273.600 M118.109 298.400 C 118.109 299.390,118.187 299.795,118.282 299.300 C 118.378 298.805,118.378 297.995,118.282 297.500 C 118.187 297.005,118.109 297.410,118.109 298.400 M208.700 297.493 C 209.635 297.577,211.165 297.577,212.100 297.493 C 213.035 297.409,212.270 297.340,210.400 297.340 C 208.530 297.340,207.765 297.409,208.700 297.493 M178.900 301.894 C 179.945 301.976,181.655 301.976,182.700 301.894 C 183.745 301.812,182.890 301.744,180.800 301.744 C 178.710 301.744,177.855 301.812,178.900 301.894 M118.114 308.600 C 118.117 309.700,118.195 310.103,118.287 309.495 C 118.379 308.886,118.377 307.986,118.282 307.495 C 118.187 307.003,118.111 307.500,118.114 308.600 M120.056 323.600 C 120.056 323.930,120.211 324.560,120.400 325.000 C 120.617 325.504,120.744 325.578,120.744 325.200 C 120.744 324.870,120.589 324.240,120.400 323.800 C 120.183 323.296,120.056 323.222,120.056 323.600 M304.985 338.900 L 303.000 341.000 305.100 339.015 C 306.255 337.923,307.200 336.978,307.200 336.915 C 307.200 336.617,306.829 336.949,304.985 338.900 M236.909 347.448 C 235.010 352.148,231.652 356.369,225.400 361.918 C 222.686 364.326,221.515 365.689,220.642 367.456 C 220.005 368.745,219.240 370.278,218.942 370.862 C 218.313 372.093,218.211 376.236,218.800 376.600 C 219.020 376.736,219.206 376.612,219.213 376.324 C 219.369 370.288,220.623 367.433,224.886 363.406 C 226.489 361.892,228.858 359.651,230.151 358.427 C 233.521 355.236,238.258 347.724,237.426 346.892 C 237.311 346.778,237.078 347.028,236.909 347.448 M76.800 351.325 C 76.800 351.394,77.385 351.979,78.100 352.625 L 79.400 353.800 78.225 352.500 C 77.130 351.288,76.800 351.016,76.800 351.325 M230.105 380.287 C 230.714 380.379,231.614 380.377,232.105 380.282 C 232.597 380.187,232.100 380.111,231.000 380.114 C 229.900 380.117,229.497 380.195,230.105 380.287 M146.305 387.083 C 146.802 387.179,147.522 387.175,147.905 387.075 C 148.287 386.975,147.880 386.896,147.000 386.901 C 146.120 386.905,145.807 386.987,146.305 387.083 " stroke="none" fill="#30d4dc" fill-rule="evenodd"></path><path id="path2" d="M169.945 7.082 C 167.105 7.519,163.952 10.381,162.404 13.926 C 161.201 16.682,163.172 26.354,165.968 31.410 C 166.949 33.184,166.903 33.001,165.001 27.542 C 158.593 9.156,168.906 1.997,185.603 13.239 C 214.849 32.931,234.433 57.570,242.350 84.634 C 245.952 96.949,246.141 117.061,242.776 129.881 C 238.961 144.412,233.814 153.521,219.769 170.600 C 209.688 182.857,212.388 195.372,225.973 199.362 C 232.065 201.151,239.315 198.794,244.800 193.238 C 247.541 190.462,250.815 185.482,250.262 184.929 C 250.144 184.810,249.789 185.332,249.473 186.087 C 246.365 193.525,235.245 200.498,228.525 199.224 C 218.506 197.324,212.823 190.560,214.390 182.400 C 215.349 177.404,217.873 173.223,223.930 166.600 C 224.332 166.160,225.097 165.170,225.631 164.400 C 226.164 163.630,227.635 161.697,228.900 160.103 C 232.110 156.063,234.255 152.607,237.160 146.800 C 239.661 141.800,240.394 139.872,242.790 132.000 C 243.493 129.690,244.325 126.995,244.640 126.011 C 247.252 117.844,246.045 92.775,242.599 83.600 C 242.227 82.610,241.667 80.746,241.356 79.457 C 241.044 78.168,240.053 75.468,239.153 73.457 C 238.253 71.446,237.131 68.902,236.658 67.804 C 235.685 65.542,232.722 60.262,230.258 56.400 C 229.345 54.970,228.419 53.500,228.199 53.134 C 227.668 52.249,223.474 46.813,222.539 45.798 C 222.133 45.356,220.737 43.646,219.437 41.998 C 215.915 37.528,205.253 27.232,199.833 23.065 C 197.211 21.049,194.720 19.069,194.298 18.665 C 193.323 17.731,189.419 14.909,185.800 12.520 C 184.260 11.503,182.550 10.370,182.000 10.000 C 178.463 7.625,173.781 6.492,169.945 7.082 M164.093 18.400 C 164.093 19.170,164.175 19.485,164.276 19.100 C 164.376 18.715,164.376 18.085,164.276 17.700 C 164.175 17.315,164.093 17.630,164.093 18.400 M166.846 33.600 C 166.809 34.879,167.969 42.019,168.938 46.482 C 170.034 51.528,171.003 62.661,170.692 66.621 C 170.218 72.650,166.919 86.753,165.411 89.200 C 164.936 89.970,164.024 91.815,163.385 93.300 C 162.745 94.785,161.857 96.405,161.411 96.901 C 160.965 97.396,159.355 99.664,157.834 101.941 C 153.704 108.122,145.456 116.639,139.400 120.974 C 138.520 121.604,137.620 122.318,137.400 122.560 C 137.180 122.802,135.921 123.900,134.601 125.000 C 131.554 127.541,130.348 128.569,127.798 130.800 C 125.870 132.486,123.644 134.310,118.435 138.471 C 117.244 139.422,114.378 141.601,112.066 143.313 C 109.754 145.024,107.038 147.165,106.031 148.069 C 105.024 148.973,102.781 150.992,101.046 152.556 C 96.524 156.632,96.385 156.754,93.217 159.400 C 86.541 164.975,81.304 170.313,69.667 183.400 C 69.080 184.060,67.972 185.410,67.204 186.400 C 66.436 187.390,65.476 188.560,65.071 189.000 C 63.981 190.184,60.000 196.291,60.000 196.779 C 60.000 197.011,59.842 197.200,59.649 197.200 C 59.455 197.200,59.059 197.785,58.767 198.500 C 58.476 199.215,57.779 200.445,57.219 201.233 C 56.658 202.021,55.570 204.001,54.800 205.633 C 54.030 207.265,53.310 208.690,53.200 208.800 C 51.151 210.849,44.657 229.323,42.372 239.600 C 41.712 242.570,40.996 245.659,40.780 246.464 C 37.734 257.848,37.729 278.437,40.770 288.717 C 41.207 290.193,41.950 293.200,42.422 295.400 C 42.894 297.600,43.964 301.290,44.801 303.600 C 45.638 305.910,46.446 308.250,46.597 308.800 C 47.069 310.513,48.787 314.730,49.570 316.096 C 49.981 316.813,50.441 317.815,50.593 318.321 C 50.744 318.828,51.505 320.358,52.283 321.721 C 53.817 324.406,55.387 327.213,56.241 328.800 C 58.472 332.942,65.102 341.897,68.532 345.400 C 70.255 347.160,72.784 349.770,74.151 351.200 C 78.919 356.186,90.517 365.472,95.400 368.213 C 96.500 368.830,97.670 369.557,98.000 369.828 C 98.536 370.267,102.226 372.247,109.400 375.944 C 111.696 377.126,118.083 379.877,125.800 383.005 C 144.399 390.545,154.698 391.004,157.451 384.416 C 157.770 383.653,158.249 382.893,158.516 382.729 C 158.821 382.540,158.983 381.498,158.953 379.915 C 158.873 375.635,156.288 371.559,151.363 367.946 C 147.857 365.373,142.989 361.473,141.249 359.841 C 139.629 358.322,132.800 349.533,132.800 348.966 C 132.800 348.828,132.286 348.059,131.658 347.258 C 130.120 345.294,124.992 334.599,124.630 332.600 C 124.471 331.720,123.605 328.930,122.705 326.400 C 120.194 319.339,119.411 307.699,120.427 292.562 C 120.876 285.881,121.121 284.674,123.336 278.200 C 124.685 274.258,125.619 269.977,124.863 271.200 C 121.103 277.281,118.374 298.789,119.560 313.000 C 121.202 332.667,131.395 352.670,145.800 364.492 C 154.087 371.293,155.649 372.810,156.678 375.057 C 160.644 383.721,153.926 390.386,143.677 387.955 C 130.129 384.741,111.412 376.859,97.000 368.300 C 56.220 344.080,32.704 293.955,41.014 248.964 C 47.785 212.301,63.326 185.976,93.408 160.211 C 96.484 157.576,99.810 154.670,100.800 153.753 C 104.316 150.493,109.070 146.545,114.200 142.623 C 122.000 136.659,126.174 133.208,145.465 116.776 C 163.811 101.148,173.250 78.263,170.841 55.253 C 170.096 48.135,166.922 30.935,166.846 33.600 M212.200 36.800 C 213.059 37.680,213.852 38.400,213.962 38.400 C 214.072 38.400,213.459 37.680,212.600 36.800 C 211.741 35.920,210.948 35.200,210.838 35.200 C 210.728 35.200,211.341 35.920,212.200 36.800 M243.709 98.000 C 243.709 98.990,243.787 99.395,243.882 98.900 C 243.978 98.405,243.978 97.595,243.882 97.100 C 243.787 96.605,243.709 97.010,243.709 98.000 M299.600 99.514 C 282.645 100.894,265.065 112.568,258.511 126.800 C 257.751 128.450,256.899 130.250,256.617 130.800 C 255.812 132.371,254.400 136.718,254.400 137.624 C 254.400 138.076,253.656 140.640,252.746 143.323 L 251.092 148.200 250.942 160.000 C 250.861 166.490,250.745 174.680,250.686 178.200 C 250.592 183.836,250.636 184.361,251.051 182.600 C 251.361 181.289,251.536 175.933,251.562 167.051 C 251.610 149.872,252.549 143.623,256.812 132.099 C 261.898 118.352,274.260 106.997,289.137 102.409 C 309.234 96.210,317.099 103.144,309.985 120.789 C 307.978 125.767,308.085 126.371,310.180 121.888 C 316.817 107.687,312.457 98.467,299.600 99.514 M244.153 107.400 C 244.153 110.040,244.218 111.068,244.297 109.684 C 244.375 108.301,244.374 106.141,244.295 104.884 C 244.216 103.628,244.152 104.760,244.153 107.400 M147.775 116.100 L 146.600 117.400 147.900 116.225 C 149.112 115.130,149.384 114.800,149.075 114.800 C 149.006 114.800,148.421 115.385,147.775 116.100 M243.701 118.200 C 243.705 119.080,243.787 119.393,243.883 118.895 C 243.979 118.398,243.975 117.678,243.875 117.295 C 243.775 116.913,243.696 117.320,243.701 118.200 M307.632 127.890 C 304.760 141.654,307.761 151.449,321.333 172.600 C 339.980 201.661,345.407 219.253,344.658 248.200 C 343.165 305.856,307.994 352.792,248.772 376.159 C 235.815 381.271,231.241 382.211,224.800 381.085 C 223.096 380.788,223.053 380.802,224.000 381.356 C 226.825 383.008,233.956 382.478,240.240 380.149 C 241.758 379.587,244.260 378.691,245.800 378.157 C 247.340 377.624,249.140 376.935,249.800 376.627 C 250.460 376.318,252.890 375.310,255.200 374.385 C 265.019 370.457,275.899 364.270,288.600 355.394 C 299.369 347.868,313.342 333.946,319.708 324.400 C 320.808 322.750,322.117 320.950,322.616 320.400 C 323.596 319.320,324.638 317.589,327.308 312.600 C 328.250 310.840,329.412 308.680,329.890 307.800 C 330.791 306.142,332.977 301.678,334.592 298.200 C 336.644 293.779,341.123 280.120,341.416 277.391 C 341.579 275.866,342.066 273.264,342.498 271.609 C 345.434 260.360,345.296 261.680,345.346 244.400 C 345.396 227.478,345.069 224.064,342.793 217.762 C 342.389 216.641,341.857 214.571,341.612 213.162 C 341.116 210.307,339.599 205.661,338.152 202.560 C 337.628 201.438,337.200 200.294,337.200 200.017 C 337.200 199.585,333.087 191.471,330.702 187.200 C 330.273 186.430,329.354 184.773,328.660 183.518 C 326.606 179.800,322.587 173.297,319.193 168.200 C 318.607 167.320,317.105 164.800,315.854 162.600 C 314.603 160.400,313.419 158.330,313.223 158.000 C 308.230 149.620,306.501 139.962,308.027 128.989 C 308.538 125.312,308.306 124.664,307.632 127.890 M252.893 151.200 C 252.893 151.970,252.975 152.285,253.076 151.900 C 253.176 151.515,253.176 150.885,253.076 150.500 C 252.975 150.115,252.893 150.430,252.893 151.200 M252.567 162.200 C 252.567 166.380,252.626 168.036,252.698 165.879 C 252.771 163.723,252.770 160.303,252.698 158.279 C 252.625 156.256,252.566 158.020,252.567 162.200 M253.314 161.400 C 253.317 162.500,253.395 162.903,253.487 162.295 C 253.579 161.686,253.577 160.786,253.482 160.295 C 253.387 159.803,253.311 160.300,253.314 161.400 M253.731 174.600 C 253.733 176.140,253.805 176.721,253.892 175.891 C 253.979 175.061,253.977 173.801,253.889 173.091 C 253.800 172.381,253.729 173.060,253.731 174.600 M343.309 232.000 C 343.309 232.990,343.387 233.395,343.482 232.900 C 343.578 232.405,343.578 231.595,343.482 231.100 C 343.387 230.605,343.309 231.010,343.309 232.000 M342.509 234.400 C 342.509 235.390,342.587 235.795,342.682 235.300 C 342.778 234.805,342.778 233.995,342.682 233.500 C 342.587 233.005,342.509 233.410,342.509 234.400 M343.762 243.800 C 343.762 247.320,343.824 248.706,343.898 246.881 C 343.972 245.056,343.972 242.176,343.897 240.481 C 343.822 238.786,343.761 240.280,343.762 243.800 M133.170 252.697 C 132.466 253.493,132.428 253.603,133.031 253.097 C 133.489 252.714,134.264 252.400,134.755 252.400 C 135.248 252.400,135.537 252.221,135.400 252.000 C 134.974 251.310,134.175 251.560,133.170 252.697 M342.509 253.200 C 342.509 254.190,342.587 254.595,342.682 254.100 C 342.778 253.605,342.778 252.795,342.682 252.300 C 342.587 251.805,342.509 252.210,342.509 253.200 M343.309 255.200 C 343.309 256.190,343.387 256.595,343.482 256.100 C 343.578 255.605,343.578 254.795,343.482 254.300 C 343.387 253.805,343.309 254.210,343.309 255.200 M136.093 255.600 C 136.093 256.370,136.175 256.685,136.276 256.300 C 136.376 255.915,136.376 255.285,136.276 254.900 C 136.175 254.515,136.093 254.830,136.093 255.600 M40.893 256.000 C 40.893 256.770,40.975 257.085,41.076 256.700 C 41.176 256.315,41.176 255.685,41.076 255.300 C 40.975 254.915,40.893 255.230,40.893 256.000 M132.283 256.078 C 130.282 258.746,124.871 269.804,125.338 270.271 C 125.540 270.473,128.459 264.782,129.090 262.957 C 129.695 261.204,132.893 256.400,133.455 256.400 C 133.990 256.400,134.800 258.474,134.800 259.845 C 134.800 260.354,135.143 261.722,135.563 262.885 C 136.421 265.265,137.835 269.986,138.232 271.800 C 139.715 278.578,149.135 291.695,155.510 295.859 C 168.577 304.394,180.301 305.739,198.600 300.800 C 216.710 295.913,231.432 302.677,237.342 318.600 C 238.294 321.164,238.719 335.160,238.046 341.767 C 237.556 346.568,237.690 347.636,238.367 344.332 C 241.469 329.180,238.340 314.315,230.383 306.402 C 222.098 298.164,212.255 296.591,195.600 300.843 L 189.000 302.528 181.200 302.564 C 158.082 302.671,142.324 288.628,136.369 262.611 C 134.688 255.264,134.609 255.013,133.935 254.883 C 133.556 254.810,132.852 255.319,132.283 256.078 M40.514 262.200 C 40.517 263.300,40.595 263.703,40.687 263.095 C 40.779 262.486,40.777 261.586,40.682 261.095 C 40.587 260.603,40.511 261.100,40.514 262.200 M41.351 268.800 C 41.351 271.330,41.416 272.365,41.496 271.100 C 41.575 269.835,41.575 267.765,41.496 266.500 C 41.416 265.235,41.351 266.270,41.351 268.800 M40.509 273.600 C 40.509 274.590,40.587 274.995,40.682 274.500 C 40.778 274.005,40.778 273.195,40.682 272.700 C 40.587 272.205,40.509 272.610,40.509 273.600 M118.109 298.400 C 118.109 299.390,118.187 299.795,118.282 299.300 C 118.378 298.805,118.378 297.995,118.282 297.500 C 118.187 297.005,118.109 297.410,118.109 298.400 M208.700 297.493 C 209.635 297.577,211.165 297.577,212.100 297.493 C 213.035 297.409,212.270 297.340,210.400 297.340 C 208.530 297.340,207.765 297.409,208.700 297.493 M178.900 301.894 C 179.945 301.976,181.655 301.976,182.700 301.894 C 183.745 301.812,182.890 301.744,180.800 301.744 C 178.710 301.744,177.855 301.812,178.900 301.894 M118.114 308.600 C 118.117 309.700,118.195 310.103,118.287 309.495 C 118.379 308.886,118.377 307.986,118.282 307.495 C 118.187 307.003,118.111 307.500,118.114 308.600 M120.056 323.600 C 120.056 323.930,120.211 324.560,120.400 325.000 C 120.617 325.504,120.744 325.578,120.744 325.200 C 120.744 324.870,120.589 324.240,120.400 323.800 C 120.183 323.296,120.056 323.222,120.056 323.600 M304.985 338.900 L 303.000 341.000 305.100 339.015 C 306.255 337.923,307.200 336.978,307.200 336.915 C 307.200 336.617,306.829 336.949,304.985 338.900 M236.909 347.448 C 235.010 352.148,231.652 356.369,225.400 361.918 C 222.686 364.326,221.515 365.689,220.642 367.456 C 220.005 368.745,219.240 370.278,218.942 370.862 C 218.313 372.093,218.211 376.236,218.800 376.600 C 219.020 376.736,219.206 376.612,219.213 376.324 C 219.369 370.288,220.623 367.433,224.886 363.406 C 226.489 361.892,228.858 359.651,230.151 358.427 C 233.521 355.236,238.258 347.724,237.426 346.892 C 237.311 346.778,237.078 347.028,236.909 347.448 M76.800 351.325 C 76.800 351.394,77.385 351.979,78.100 352.625 L 79.400 353.800 78.225 352.500 C 77.130 351.288,76.800 351.016,76.800 351.325 M230.105 380.287 C 230.714 380.379,231.614 380.377,232.105 380.282 C 232.597 380.187,232.100 380.111,231.000 380.114 C 229.900 380.117,229.497 380.195,230.105 380.287 M146.305 387.083 C 146.802 387.179,147.522 387.175,147.905 387.075 C 148.287 386.975,147.880 386.896,147.000 386.901 C 146.120 386.905,145.807 386.987,146.305 387.083 " stroke="none" fill="#30d4dc" fill-rule="evenodd"></path><path id="path3" d="M169.945 7.082 C 167.105 7.519,163.952 10.381,162.404 13.926 C 161.201 16.682,163.172 26.354,165.968 31.410 C 166.949 33.184,166.903 33.001,165.001 27.542 C 158.593 9.156,168.906 1.997,185.603 13.239 C 214.849 32.931,234.433 57.570,242.350 84.634 C 245.952 96.949,246.141 117.061,242.776 129.881 C 238.961 144.412,233.814 153.521,219.769 170.600 C 209.688 182.857,212.388 195.372,225.973 199.362 C 232.065 201.151,239.315 198.794,244.800 193.238 C 247.541 190.462,250.815 185.482,250.262 184.929 C 250.144 184.810,249.789 185.332,249.473 186.087 C 246.365 193.525,235.245 200.498,228.525 199.224 C 218.506 197.324,212.823 190.560,214.390 182.400 C 215.349 177.404,217.873 173.223,223.930 166.600 C 224.332 166.160,225.097 165.170,225.631 164.400 C 226.164 163.630,227.635 161.697,228.900 160.103 C 232.110 156.063,234.255 152.607,237.160 146.800 C 239.661 141.800,240.394 139.872,242.790 132.000 C 243.493 129.690,244.325 126.995,244.640 126.011 C 247.252 117.844,246.045 92.775,242.599 83.600 C 242.227 82.610,241.667 80.746,241.356 79.457 C 241.044 78.168,240.053 75.468,239.153 73.457 C 238.253 71.446,237.131 68.902,236.658 67.804 C 235.685 65.542,232.722 60.262,230.258 56.400 C 229.345 54.970,228.419 53.500,228.199 53.134 C 227.668 52.249,223.474 46.813,222.539 45.798 C 222.133 45.356,220.737 43.646,219.437 41.998 C 215.915 37.528,205.253 27.232,199.833 23.065 C 197.211 21.049,194.720 19.069,194.298 18.665 C 193.323 17.731,189.419 14.909,185.800 12.520 C 184.260 11.503,182.550 10.370,182.000 10.000 C 178.463 7.625,173.781 6.492,169.945 7.082 M164.093 18.400 C 164.093 19.170,164.175 19.485,164.276 19.100 C 164.376 18.715,164.376 18.085,164.276 17.700 C 164.175 17.315,164.093 17.630,164.093 18.400 M166.846 33.600 C 166.809 34.879,167.969 42.019,168.938 46.482 C 170.034 51.528,171.003 62.661,170.692 66.621 C 170.218 72.650,166.919 86.753,165.411 89.200 C 164.936 89.970,164.024 91.815,163.385 93.300 C 162.745 94.785,161.857 96.405,161.411 96.901 C 160.965 97.396,159.355 99.664,157.834 101.941 C 153.704 108.122,145.456 116.639,139.400 120.974 C 138.520 121.604,137.620 122.318,137.400 122.560 C 137.180 122.802,135.921 123.900,134.601 125.000 C 131.554 127.541,130.348 128.569,127.798 130.800 C 125.870 132.486,123.644 134.310,118.435 138.471 C 117.244 139.422,114.378 141.601,112.066 143.313 C 109.754 145.024,107.038 147.165,106.031 148.069 C 105.024 148.973,102.781 150.992,101.046 152.556 C 96.524 156.632,96.385 156.754,93.217 159.400 C 86.541 164.975,81.304 170.313,69.667 183.400 C 69.080 184.060,67.972 185.410,67.204 186.400 C 66.436 187.390,65.476 188.560,65.071 189.000 C 63.981 190.184,60.000 196.291,60.000 196.779 C 60.000 197.011,59.842 197.200,59.649 197.200 C 59.455 197.200,59.059 197.785,58.767 198.500 C 58.476 199.215,57.779 200.445,57.219 201.233 C 56.658 202.021,55.570 204.001,54.800 205.633 C 54.030 207.265,53.310 208.690,53.200 208.800 C 51.151 210.849,44.657 229.323,42.372 239.600 C 41.712 242.570,40.996 245.659,40.780 246.464 C 37.734 257.848,37.729 278.437,40.770 288.717 C 41.207 290.193,41.950 293.200,42.422 295.400 C 42.894 297.600,43.964 301.290,44.801 303.600 C 45.638 305.910,46.446 308.250,46.597 308.800 C 47.069 310.513,48.787 314.730,49.570 316.096 C 49.981 316.813,50.441 317.815,50.593 318.321 C 50.744 318.828,51.505 320.358,52.283 321.721 C 53.817 324.406,55.387 327.213,56.241 328.800 C 58.472 332.942,65.102 341.897,68.532 345.400 C 70.255 347.160,72.784 349.770,74.151 351.200 C 78.919 356.186,90.517 365.472,95.400 368.213 C 96.500 368.830,97.670 369.557,98.000 369.828 C 98.536 370.267,102.226 372.247,109.400 375.944 C 111.696 377.126,118.083 379.877,125.800 383.005 C 144.399 390.545,154.698 391.004,157.451 384.416 C 157.770 383.653,158.249 382.893,158.516 382.729 C 158.821 382.540,158.983 381.498,158.953 379.915 C 158.873 375.635,156.288 371.559,151.363 367.946 C 147.857 365.373,142.989 361.473,141.249 359.841 C 139.629 358.322,132.800 349.533,132.800 348.966 C 132.800 348.828,132.286 348.059,131.658 347.258 C 130.120 345.294,124.992 334.599,124.630 332.600 C 124.471 331.720,123.605 328.930,122.705 326.400 C 120.194 319.339,119.411 307.699,120.427 292.562 C 120.876 285.881,121.121 284.674,123.336 278.200 C 124.685 274.258,125.619 269.977,124.863 271.200 C 121.103 277.281,118.374 298.789,119.560 313.000 C 121.202 332.667,131.395 352.670,145.800 364.492 C 154.087 371.293,155.649 372.810,156.678 375.057 C 160.644 383.721,153.926 390.386,143.677 387.955 C 130.129 384.741,111.412 376.859,97.000 368.300 C 56.220 344.080,32.704 293.955,41.014 248.964 C 47.785 212.301,63.326 185.976,93.408 160.211 C 96.484 157.576,99.810 154.670,100.800 153.753 C 104.316 150.493,109.070 146.545,114.200 142.623 C 122.000 136.659,126.174 133.208,145.465 116.776 C 163.811 101.148,173.250 78.263,170.841 55.253 C 170.096 48.135,166.922 30.935,166.846 33.600 M212.200 36.800 C 213.059 37.680,213.852 38.400,213.962 38.400 C 214.072 38.400,213.459 37.680,212.600 36.800 C 211.741 35.920,210.948 35.200,210.838 35.200 C 210.728 35.200,211.341 35.920,212.200 36.800 M243.709 98.000 C 243.709 98.990,243.787 99.395,243.882 98.900 C 243.978 98.405,243.978 97.595,243.882 97.100 C 243.787 96.605,243.709 97.010,243.709 98.000 M299.600 99.514 C 282.645 100.894,265.065 112.568,258.511 126.800 C 257.751 128.450,256.899 130.250,256.617 130.800 C 255.812 132.371,254.400 136.718,254.400 137.624 C 254.400 138.076,253.656 140.640,252.746 143.323 L 251.092 148.200 250.942 160.000 C 250.861 166.490,250.745 174.680,250.686 178.200 C 250.592 183.836,250.636 184.361,251.051 182.600 C 251.361 181.289,251.536 175.933,251.562 167.051 C 251.610 149.872,252.549 143.623,256.812 132.099 C 261.898 118.352,274.260 106.997,289.137 102.409 C 309.234 96.210,317.099 103.144,309.985 120.789 C 307.978 125.767,308.085 126.371,310.180 121.888 C 316.817 107.687,312.457 98.467,299.600 99.514 M244.153 107.400 C 244.153 110.040,244.218 111.068,244.297 109.684 C 244.375 108.301,244.374 106.141,244.295 104.884 C 244.216 103.628,244.152 104.760,244.153 107.400 M147.775 116.100 L 146.600 117.400 147.900 116.225 C 149.112 115.130,149.384 114.800,149.075 114.800 C 149.006 114.800,148.421 115.385,147.775 116.100 M243.701 118.200 C 243.705 119.080,243.787 119.393,243.883 118.895 C 243.979 118.398,243.975 117.678,243.875 117.295 C 243.775 116.913,243.696 117.320,243.701 118.200 M307.632 127.890 C 304.760 141.654,307.761 151.449,321.333 172.600 C 339.980 201.661,345.407 219.253,344.658 248.200 C 343.165 305.856,307.994 352.792,248.772 376.159 C 235.815 381.271,231.241 382.211,224.800 381.085 C 223.096 380.788,223.053 380.802,224.000 381.356 C 226.825 383.008,233.956 382.478,240.240 380.149 C 241.758 379.587,244.260 378.691,245.800 378.157 C 247.340 377.624,249.140 376.935,249.800 376.627 C 250.460 376.318,252.890 375.310,255.200 374.385 C 265.019 370.457,275.899 364.270,288.600 355.394 C 299.369 347.868,313.342 333.946,319.708 324.400 C 320.808 322.750,322.117 320.950,322.616 320.400 C 323.596 319.320,324.638 317.589,327.308 312.600 C 328.250 310.840,329.412 308.680,329.890 307.800 C 330.791 306.142,332.977 301.678,334.592 298.200 C 336.644 293.779,341.123 280.120,341.416 277.391 C 341.579 275.866,342.066 273.264,342.498 271.609 C 345.434 260.360,345.296 261.680,345.346 244.400 C 345.396 227.478,345.069 224.064,342.793 217.762 C 342.389 216.641,341.857 214.571,341.612 213.162 C 341.116 210.307,339.599 205.661,338.152 202.560 C 337.628 201.438,337.200 200.294,337.200 200.017 C 337.200 199.585,333.087 191.471,330.702 187.200 C 330.273 186.430,329.354 184.773,328.660 183.518 C 326.606 179.800,322.587 173.297,319.193 168.200 C 318.607 167.320,317.105 164.800,315.854 162.600 C 314.603 160.400,313.419 158.330,313.223 158.000 C 308.230 149.620,306.501 139.962,308.027 128.989 C 308.538 125.312,308.306 124.664,307.632 127.890 M252.893 151.200 C 252.893 151.970,252.975 152.285,253.076 151.900 C 253.176 151.515,253.176 150.885,253.076 150.500 C 252.975 150.115,252.893 150.430,252.893 151.200 M252.567 162.200 C 252.567 166.380,252.626 168.036,252.698 165.879 C 252.771 163.723,252.770 160.303,252.698 158.279 C 252.625 156.256,252.566 158.020,252.567 162.200 M253.314 161.400 C 253.317 162.500,253.395 162.903,253.487 162.295 C 253.579 161.686,253.577 160.786,253.482 160.295 C 253.387 159.803,253.311 160.300,253.314 161.400 M253.731 174.600 C 253.733 176.140,253.805 176.721,253.892 175.891 C 253.979 175.061,253.977 173.801,253.889 173.091 C 253.800 172.381,253.729 173.060,253.731 174.600 M343.309 232.000 C 343.309 232.990,343.387 233.395,343.482 232.900 C 343.578 232.405,343.578 231.595,343.482 231.100 C 343.387 230.605,343.309 231.010,343.309 232.000 M342.509 234.400 C 342.509 235.390,342.587 235.795,342.682 235.300 C 342.778 234.805,342.778 233.995,342.682 233.500 C 342.587 233.005,342.509 233.410,342.509 234.400 M343.762 243.800 C 343.762 247.320,343.824 248.706,343.898 246.881 C 343.972 245.056,343.972 242.176,343.897 240.481 C 343.822 238.786,343.761 240.280,343.762 243.800 M133.170 252.697 C 132.466 253.493,132.428 253.603,133.031 253.097 C 133.489 252.714,134.264 252.400,134.755 252.400 C 135.248 252.400,135.537 252.221,135.400 252.000 C 134.974 251.310,134.175 251.560,133.170 252.697 M342.509 253.200 C 342.509 254.190,342.587 254.595,342.682 254.100 C 342.778 253.605,342.778 252.795,342.682 252.300 C 342.587 251.805,342.509 252.210,342.509 253.200 M343.309 255.200 C 343.309 256.190,343.387 256.595,343.482 256.100 C 343.578 255.605,343.578 254.795,343.482 254.300 C 343.387 253.805,343.309 254.210,343.309 255.200 M136.093 255.600 C 136.093 256.370,136.175 256.685,136.276 256.300 C 136.376 255.915,136.376 255.285,136.276 254.900 C 136.175 254.515,136.093 254.830,136.093 255.600 M40.893 256.000 C 40.893 256.770,40.975 257.085,41.076 256.700 C 41.176 256.315,41.176 255.685,41.076 255.300 C 40.975 254.915,40.893 255.230,40.893 256.000 M132.283 256.078 C 130.282 258.746,124.871 269.804,125.338 270.271 C 125.540 270.473,128.459 264.782,129.090 262.957 C 129.695 261.204,132.893 256.400,133.455 256.400 C 133.990 256.400,134.800 258.474,134.800 259.845 C 134.800 260.354,135.143 261.722,135.563 262.885 C 136.421 265.265,137.835 269.986,138.232 271.800 C 139.715 278.578,149.135 291.695,155.510 295.859 C 168.577 304.394,180.301 305.739,198.600 300.800 C 216.710 295.913,231.432 302.677,237.342 318.600 C 238.294 321.164,238.719 335.160,238.046 341.767 C 237.556 346.568,237.690 347.636,238.367 344.332 C 241.469 329.180,238.340 314.315,230.383 306.402 C 222.098 298.164,212.255 296.591,195.600 300.843 L 189.000 302.528 181.200 302.564 C 158.082 302.671,142.324 288.628,136.369 262.611 C 134.688 255.264,134.609 255.013,133.935 254.883 C 133.556 254.810,132.852 255.319,132.283 256.078 M40.514 262.200 C 40.517 263.300,40.595 263.703,40.687 263.095 C 40.779 262.486,40.777 261.586,40.682 261.095 C 40.587 260.603,40.511 261.100,40.514 262.200 M41.351 268.800 C 41.351 271.330,41.416 272.365,41.496 271.100 C 41.575 269.835,41.575 267.765,41.496 266.500 C 41.416 265.235,41.351 266.270,41.351 268.800 M40.509 273.600 C 40.509 274.590,40.587 274.995,40.682 274.500 C 40.778 274.005,40.778 273.195,40.682 272.700 C 40.587 272.205,40.509 272.610,40.509 273.600 M118.109 298.400 C 118.109 299.390,118.187 299.795,118.282 299.300 C 118.378 298.805,118.378 297.995,118.282 297.500 C 118.187 297.005,118.109 297.410,118.109 298.400 M208.700 297.493 C 209.635 297.577,211.165 297.577,212.100 297.493 C 213.035 297.409,212.270 297.340,210.400 297.340 C 208.530 297.340,207.765 297.409,208.700 297.493 M178.900 301.894 C 179.945 301.976,181.655 301.976,182.700 301.894 C 183.745 301.812,182.890 301.744,180.800 301.744 C 178.710 301.744,177.855 301.812,178.900 301.894 M118.114 308.600 C 118.117 309.700,118.195 310.103,118.287 309.495 C 118.379 308.886,118.377 307.986,118.282 307.495 C 118.187 307.003,118.111 307.500,118.114 308.600 M120.056 323.600 C 120.056 323.930,120.211 324.560,120.400 325.000 C 120.617 325.504,120.744 325.578,120.744 325.200 C 120.744 324.870,120.589 324.240,120.400 323.800 C 120.183 323.296,120.056 323.222,120.056 323.600 M304.985 338.900 L 303.000 341.000 305.100 339.015 C 306.255 337.923,307.200 336.978,307.200 336.915 C 307.200 336.617,306.829 336.949,304.985 338.900 M236.909 347.448 C 235.010 352.148,231.652 356.369,225.400 361.918 C 222.686 364.326,221.515 365.689,220.642 367.456 C 220.005 368.745,219.240 370.278,218.942 370.862 C 218.313 372.093,218.211 376.236,218.800 376.600 C 219.020 376.736,219.206 376.612,219.213 376.324 C 219.369 370.288,220.623 367.433,224.886 363.406 C 226.489 361.892,228.858 359.651,230.151 358.427 C 233.521 355.236,238.258 347.724,237.426 346.892 C 237.311 346.778,237.078 347.028,236.909 347.448 M76.800 351.325 C 76.800 351.394,77.385 351.979,78.100 352.625 L 79.400 353.800 78.225 352.500 C 77.130 351.288,76.800 351.016,76.800 351.325 M230.105 380.287 C 230.714 380.379,231.614 380.377,232.105 380.282 C 232.597 380.187,232.100 380.111,231.000 380.114 C 229.900 380.117,229.497 380.195,230.105 380.287 M146.305 387.083 C 146.802 387.179,147.522 387.175,147.905 387.075 C 148.287 386.975,147.880 386.896,147.000 386.901 C 146.120 386.905,145.807 386.987,146.305 387.083 " stroke="none" fill="#30d4dc" fill-rule="evenodd"></path><path id="path4" d="M169.945 7.082 C 167.105 7.519,163.952 10.381,162.404 13.926 C 161.201 16.682,163.172 26.354,165.968 31.410 C 166.949 33.184,166.903 33.001,165.001 27.542 C 158.593 9.156,168.906 1.997,185.603 13.239 C 214.849 32.931,234.433 57.570,242.350 84.634 C 245.952 96.949,246.141 117.061,242.776 129.881 C 238.961 144.412,233.814 153.521,219.769 170.600 C 209.688 182.857,212.388 195.372,225.973 199.362 C 232.065 201.151,239.315 198.794,244.800 193.238 C 247.541 190.462,250.815 185.482,250.262 184.929 C 250.144 184.810,249.789 185.332,249.473 186.087 C 246.365 193.525,235.245 200.498,228.525 199.224 C 218.506 197.324,212.823 190.560,214.390 182.400 C 215.349 177.404,217.873 173.223,223.930 166.600 C 224.332 166.160,225.097 165.170,225.631 164.400 C 226.164 163.630,227.635 161.697,228.900 160.103 C 232.110 156.063,234.255 152.607,237.160 146.800 C 239.661 141.800,240.394 139.872,242.790 132.000 C 243.493 129.690,244.325 126.995,244.640 126.011 C 247.252 117.844,246.045 92.775,242.599 83.600 C 242.227 82.610,241.667 80.746,241.356 79.457 C 241.044 78.168,240.053 75.468,239.153 73.457 C 238.253 71.446,237.131 68.902,236.658 67.804 C 235.685 65.542,232.722 60.262,230.258 56.400 C 229.345 54.970,228.419 53.500,228.199 53.134 C 227.668 52.249,223.474 46.813,222.539 45.798 C 222.133 45.356,220.737 43.646,219.437 41.998 C 215.915 37.528,205.253 27.232,199.833 23.065 C 197.211 21.049,194.720 19.069,194.298 18.665 C 193.323 17.731,189.419 14.909,185.800 12.520 C 184.260 11.503,182.550 10.370,182.000 10.000 C 178.463 7.625,173.781 6.492,169.945 7.082 M164.093 18.400 C 164.093 19.170,164.175 19.485,164.276 19.100 C 164.376 18.715,164.376 18.085,164.276 17.700 C 164.175 17.315,164.093 17.630,164.093 18.400 M166.846 33.600 C 166.809 34.879,167.969 42.019,168.938 46.482 C 170.034 51.528,171.003 62.661,170.692 66.621 C 170.218 72.650,166.919 86.753,165.411 89.200 C 164.936 89.970,164.024 91.815,163.385 93.300 C 162.745 94.785,161.857 96.405,161.411 96.901 C 160.965 97.396,159.355 99.664,157.834 101.941 C 153.704 108.122,145.456 116.639,139.400 120.974 C 138.520 121.604,137.620 122.318,137.400 122.560 C 137.180 122.802,135.921 123.900,134.601 125.000 C 131.554 127.541,130.348 128.569,127.798 130.800 C 125.870 132.486,123.644 134.310,118.435 138.471 C 117.244 139.422,114.378 141.601,112.066 143.313 C 109.754 145.024,107.038 147.165,106.031 148.069 C 105.024 148.973,102.781 150.992,101.046 152.556 C 96.524 156.632,96.385 156.754,93.217 159.400 C 86.541 164.975,81.304 170.313,69.667 183.400 C 69.080 184.060,67.972 185.410,67.204 186.400 C 66.436 187.390,65.476 188.560,65.071 189.000 C 63.981 190.184,60.000 196.291,60.000 196.779 C 60.000 197.011,59.842 197.200,59.649 197.200 C 59.455 197.200,59.059 197.785,58.767 198.500 C 58.476 199.215,57.779 200.445,57.219 201.233 C 56.658 202.021,55.570 204.001,54.800 205.633 C 54.030 207.265,53.310 208.690,53.200 208.800 C 51.151 210.849,44.657 229.323,42.372 239.600 C 41.712 242.570,40.996 245.659,40.780 246.464 C 37.734 257.848,37.729 278.437,40.770 288.717 C 41.207 290.193,41.950 293.200,42.422 295.400 C 42.894 297.600,43.964 301.290,44.801 303.600 C 45.638 305.910,46.446 308.250,46.597 308.800 C 47.069 310.513,48.787 314.730,49.570 316.096 C 49.981 316.813,50.441 317.815,50.593 318.321 C 50.744 318.828,51.505 320.358,52.283 321.721 C 53.817 324.406,55.387 327.213,56.241 328.800 C 58.472 332.942,65.102 341.897,68.532 345.400 C 70.255 347.160,72.784 349.770,74.151 351.200 C 78.919 356.186,90.517 365.472,95.400 368.213 C 96.500 368.830,97.670 369.557,98.000 369.828 C 98.536 370.267,102.226 372.247,109.400 375.944 C 111.696 377.126,118.083 379.877,125.800 383.005 C 144.399 390.545,154.698 391.004,157.451 384.416 C 157.770 383.653,158.249 382.893,158.516 382.729 C 158.821 382.540,158.983 381.498,158.953 379.915 C 158.873 375.635,156.288 371.559,151.363 367.946 C 147.857 365.373,142.989 361.473,141.249 359.841 C 139.629 358.322,132.800 349.533,132.800 348.966 C 132.800 348.828,132.286 348.059,131.658 347.258 C 130.120 345.294,124.992 334.599,124.630 332.600 C 124.471 331.720,123.605 328.930,122.705 326.400 C 120.194 319.339,119.411 307.699,120.427 292.562 C 120.876 285.881,121.121 284.674,123.336 278.200 C 124.685 274.258,125.619 269.977,124.863 271.200 C 121.103 277.281,118.374 298.789,119.560 313.000 C 121.202 332.667,131.395 352.670,145.800 364.492 C 154.087 371.293,155.649 372.810,156.678 375.057 C 160.644 383.721,153.926 390.386,143.677 387.955 C 130.129 384.741,111.412 376.859,97.000 368.300 C 56.220 344.080,32.704 293.955,41.014 248.964 C 47.785 212.301,63.326 185.976,93.408 160.211 C 96.484 157.576,99.810 154.670,100.800 153.753 C 104.316 150.493,109.070 146.545,114.200 142.623 C 122.000 136.659,126.174 133.208,145.465 116.776 C 163.811 101.148,173.250 78.263,170.841 55.253 C 170.096 48.135,166.922 30.935,166.846 33.600 M212.200 36.800 C 213.059 37.680,213.852 38.400,213.962 38.400 C 214.072 38.400,213.459 37.680,212.600 36.800 C 211.741 35.920,210.948 35.200,210.838 35.200 C 210.728 35.200,211.341 35.920,212.200 36.800 M243.709 98.000 C 243.709 98.990,243.787 99.395,243.882 98.900 C 243.978 98.405,243.978 97.595,243.882 97.100 C 243.787 96.605,243.709 97.010,243.709 98.000 M299.600 99.514 C 282.645 100.894,265.065 112.568,258.511 126.800 C 257.751 128.450,256.899 130.250,256.617 130.800 C 255.812 132.371,254.400 136.718,254.400 137.624 C 254.400 138.076,253.656 140.640,252.746 143.323 L 251.092 148.200 250.942 160.000 C 250.861 166.490,250.745 174.680,250.686 178.200 C 250.592 183.836,250.636 184.361,251.051 182.600 C 251.361 181.289,251.536 175.933,251.562 167.051 C 251.610 149.872,252.549 143.623,256.812 132.099 C 261.898 118.352,274.260 106.997,289.137 102.409 C 309.234 96.210,317.099 103.144,309.985 120.789 C 307.978 125.767,308.085 126.371,310.180 121.888 C 316.817 107.687,312.457 98.467,299.600 99.514 M244.153 107.400 C 244.153 110.040,244.218 111.068,244.297 109.684 C 244.375 108.301,244.374 106.141,244.295 104.884 C 244.216 103.628,244.152 104.760,244.153 107.400 M147.775 116.100 L 146.600 117.400 147.900 116.225 C 149.112 115.130,149.384 114.800,149.075 114.800 C 149.006 114.800,148.421 115.385,147.775 116.100 M243.701 118.200 C 243.705 119.080,243.787 119.393,243.883 118.895 C 243.979 118.398,243.975 117.678,243.875 117.295 C 243.775 116.913,243.696 117.320,243.701 118.200 M307.632 127.890 C 304.760 141.654,307.761 151.449,321.333 172.600 C 339.980 201.661,345.407 219.253,344.658 248.200 C 343.165 305.856,307.994 352.792,248.772 376.159 C 235.815 381.271,231.241 382.211,224.800 381.085 C 223.096 380.788,223.053 380.802,224.000 381.356 C 226.825 383.008,233.956 382.478,240.240 380.149 C 241.758 379.587,244.260 378.691,245.800 378.157 C 247.340 377.624,249.140 376.935,249.800 376.627 C 250.460 376.318,252.890 375.310,255.200 374.385 C 265.019 370.457,275.899 364.270,288.600 355.394 C 299.369 347.868,313.342 333.946,319.708 324.400 C 320.808 322.750,322.117 320.950,322.616 320.400 C 323.596 319.320,324.638 317.589,327.308 312.600 C 328.250 310.840,329.412 308.680,329.890 307.800 C 330.791 306.142,332.977 301.678,334.592 298.200 C 336.644 293.779,341.123 280.120,341.416 277.391 C 341.579 275.866,342.066 273.264,342.498 271.609 C 345.434 260.360,345.296 261.680,345.346 244.400 C 345.396 227.478,345.069 224.064,342.793 217.762 C 342.389 216.641,341.857 214.571,341.612 213.162 C 341.116 210.307,339.599 205.661,338.152 202.560 C 337.628 201.438,337.200 200.294,337.200 200.017 C 337.200 199.585,333.087 191.471,330.702 187.200 C 330.273 186.430,329.354 184.773,328.660 183.518 C 326.606 179.800,322.587 173.297,319.193 168.200 C 318.607 167.320,317.105 164.800,315.854 162.600 C 314.603 160.400,313.419 158.330,313.223 158.000 C 308.230 149.620,306.501 139.962,308.027 128.989 C 308.538 125.312,308.306 124.664,307.632 127.890 M252.893 151.200 C 252.893 151.970,252.975 152.285,253.076 151.900 C 253.176 151.515,253.176 150.885,253.076 150.500 C 252.975 150.115,252.893 150.430,252.893 151.200 M252.567 162.200 C 252.567 166.380,252.626 168.036,252.698 165.879 C 252.771 163.723,252.770 160.303,252.698 158.279 C 252.625 156.256,252.566 158.020,252.567 162.200 M253.314 161.400 C 253.317 162.500,253.395 162.903,253.487 162.295 C 253.579 161.686,253.577 160.786,253.482 160.295 C 253.387 159.803,253.311 160.300,253.314 161.400 M253.731 174.600 C 253.733 176.140,253.805 176.721,253.892 175.891 C 253.979 175.061,253.977 173.801,253.889 173.091 C 253.800 172.381,253.729 173.060,253.731 174.600 M343.309 232.000 C 343.309 232.990,343.387 233.395,343.482 232.900 C 343.578 232.405,343.578 231.595,343.482 231.100 C 343.387 230.605,343.309 231.010,343.309 232.000 M342.509 234.400 C 342.509 235.390,342.587 235.795,342.682 235.300 C 342.778 234.805,342.778 233.995,342.682 233.500 C 342.587 233.005,342.509 233.410,342.509 234.400 M343.762 243.800 C 343.762 247.320,343.824 248.706,343.898 246.881 C 343.972 245.056,343.972 242.176,343.897 240.481 C 343.822 238.786,343.761 240.280,343.762 243.800 M133.170 252.697 C 132.466 253.493,132.428 253.603,133.031 253.097 C 133.489 252.714,134.264 252.400,134.755 252.400 C 135.248 252.400,135.537 252.221,135.400 252.000 C 134.974 251.310,134.175 251.560,133.170 252.697 M342.509 253.200 C 342.509 254.190,342.587 254.595,342.682 254.100 C 342.778 253.605,342.778 252.795,342.682 252.300 C 342.587 251.805,342.509 252.210,342.509 253.200 M343.309 255.200 C 343.309 256.190,343.387 256.595,343.482 256.100 C 343.578 255.605,343.578 254.795,343.482 254.300 C 343.387 253.805,343.309 254.210,343.309 255.200 M136.093 255.600 C 136.093 256.370,136.175 256.685,136.276 256.300 C 136.376 255.915,136.376 255.285,136.276 254.900 C 136.175 254.515,136.093 254.830,136.093 255.600 M40.893 256.000 C 40.893 256.770,40.975 257.085,41.076 256.700 C 41.176 256.315,41.176 255.685,41.076 255.300 C 40.975 254.915,40.893 255.230,40.893 256.000 M132.283 256.078 C 130.282 258.746,124.871 269.804,125.338 270.271 C 125.540 270.473,128.459 264.782,129.090 262.957 C 129.695 261.204,132.893 256.400,133.455 256.400 C 133.990 256.400,134.800 258.474,134.800 259.845 C 134.800 260.354,135.143 261.722,135.563 262.885 C 136.421 265.265,137.835 269.986,138.232 271.800 C 139.715 278.578,149.135 291.695,155.510 295.859 C 168.577 304.394,180.301 305.739,198.600 300.800 C 216.710 295.913,231.432 302.677,237.342 318.600 C 238.294 321.164,238.719 335.160,238.046 341.767 C 237.556 346.568,237.690 347.636,238.367 344.332 C 241.469 329.180,238.340 314.315,230.383 306.402 C 222.098 298.164,212.255 296.591,195.600 300.843 L 189.000 302.528 181.200 302.564 C 158.082 302.671,142.324 288.628,136.369 262.611 C 134.688 255.264,134.609 255.013,133.935 254.883 C 133.556 254.810,132.852 255.319,132.283 256.078 M40.514 262.200 C 40.517 263.300,40.595 263.703,40.687 263.095 C 40.779 262.486,40.777 261.586,40.682 261.095 C 40.587 260.603,40.511 261.100,40.514 262.200 M41.351 268.800 C 41.351 271.330,41.416 272.365,41.496 271.100 C 41.575 269.835,41.575 267.765,41.496 266.500 C 41.416 265.235,41.351 266.270,41.351 268.800 M40.509 273.600 C 40.509 274.590,40.587 274.995,40.682 274.500 C 40.778 274.005,40.778 273.195,40.682 272.700 C 40.587 272.205,40.509 272.610,40.509 273.600 M118.109 298.400 C 118.109 299.390,118.187 299.795,118.282 299.300 C 118.378 298.805,118.378 297.995,118.282 297.500 C 118.187 297.005,118.109 297.410,118.109 298.400 M208.700 297.493 C 209.635 297.577,211.165 297.577,212.100 297.493 C 213.035 297.409,212.270 297.340,210.400 297.340 C 208.530 297.340,207.765 297.409,208.700 297.493 M178.900 301.894 C 179.945 301.976,181.655 301.976,182.700 301.894 C 183.745 301.812,182.890 301.744,180.800 301.744 C 178.710 301.744,177.855 301.812,178.900 301.894 M118.114 308.600 C 118.117 309.700,118.195 310.103,118.287 309.495 C 118.379 308.886,118.377 307.986,118.282 307.495 C 118.187 307.003,118.111 307.500,118.114 308.600 M120.056 323.600 C 120.056 323.930,120.211 324.560,120.400 325.000 C 120.617 325.504,120.744 325.578,120.744 325.200 C 120.744 324.870,120.589 324.240,120.400 323.800 C 120.183 323.296,120.056 323.222,120.056 323.600 M304.985 338.900 L 303.000 341.000 305.100 339.015 C 306.255 337.923,307.200 336.978,307.200 336.915 C 307.200 336.617,306.829 336.949,304.985 338.900 M236.909 347.448 C 235.010 352.148,231.652 356.369,225.400 361.918 C 222.686 364.326,221.515 365.689,220.642 367.456 C 220.005 368.745,219.240 370.278,218.942 370.862 C 218.313 372.093,218.211 376.236,218.800 376.600 C 219.020 376.736,219.206 376.612,219.213 376.324 C 219.369 370.288,220.623 367.433,224.886 363.406 C 226.489 361.892,228.858 359.651,230.151 358.427 C 233.521 355.236,238.258 347.724,237.426 346.892 C 237.311 346.778,237.078 347.028,236.909 347.448 M76.800 351.325 C 76.800 351.394,77.385 351.979,78.100 352.625 L 79.400 353.800 78.225 352.500 C 77.130 351.288,76.800 351.016,76.800 351.325 M230.105 380.287 C 230.714 380.379,231.614 380.377,232.105 380.282 C 232.597 380.187,232.100 380.111,231.000 380.114 C 229.900 380.117,229.497 380.195,230.105 380.287 M146.305 387.083 C 146.802 387.179,147.522 387.175,147.905 387.075 C 148.287 386.975,147.880 386.896,147.000 386.901 C 146.120 386.905,145.807 386.987,146.305 387.083 " stroke="none" fill="#30d4dc" fill-rule="evenodd"></path></g></svg>